<svg width="100" height="100" viewBox="0 0 100 100" fill="none" xmlns="http://www.w3.org/2000/svg">
<path d="M69.611 46.083H68V46H50V54H61.303C59.654 58.657 55.223 62 50 62C43.373 62 38 56.627 38 50C38 43.373 43.373 38 50 38C53.059 38 55.842 39.154 57.961 41.039L63.618 35.382C60.046 32.053 55.268 30 50 30C38.955 30 30 38.955 30 50C30 61.045 38.955 70 50 70C61.045 70 70 61.045 70 50C70 48.659 69.862 47.35 69.611 46.083Z" fill="#FFC107"/>
<path d="M32.306 40.691L38.877 45.51C40.655 41.108 44.961 38 50 38C53.059 38 55.842 39.154 57.961 41.039L63.618 35.382C60.046 32.053 55.268 30 50 30C42.318 30 35.656 34.337 32.306 40.691Z" fill="#FF3D00"/>
<path d="M49.9999 70.0002C55.1659 70.0002 59.8599 68.0232 63.4089 64.8082L57.2189 59.5702C55.1435 61.1486 52.6074 62.0023 49.9999 62.0002C44.7979 62.0002 40.3809 58.6832 38.7169 54.0542L32.1949 59.0792C35.5049 65.5562 42.2269 70.0002 49.9999 70.0002Z" fill="#4CAF50"/>
<path d="M69.611 46.083H68V46H50V54H61.303C60.5142 56.2164 59.0934 58.1532 57.216 59.571L57.219 59.569L63.409 64.807C62.971 65.205 70 60 70 50C70 48.659 69.862 47.35 69.611 46.083Z" fill="#1976D2"/>
</svg>
