<svg width="24" height="24" viewBox="0 0 24 24" fill="none" xmlns="http://www.w3.org/2000/svg">
<g clip-path="url(#clip0_180_10)">
<path d="M4.93124 1.16738C4.78593 0.750195 4.19531 0.750195 4.04531 1.16738L1.39687 9.36113H7.58437C7.57968 9.36113 4.93124 1.16738 4.93124 1.16738ZM0.0421803 13.4861C-0.0796947 13.8611 0.0562428 14.2783 0.374993 14.5174L11.9953 23.1424L1.39218 9.36113L0.0421803 13.4861ZM7.57968 9.36113L12 23.1424L16.4203 9.36113H7.57968ZM23.9578 13.4861L22.6078 9.36113L12 23.1424L23.6203 14.5174C23.9437 14.2783 24.075 13.8611 23.9578 13.4861ZM19.9547 1.16738C19.8094 0.750195 19.2187 0.750195 19.0687 1.16738L16.4156 9.36113H22.6031L19.9547 1.16738Z" fill="white"/>
</g>
<defs>
<clipPath id="clip0_180_10">
<rect width="24" height="24" fill="white"/>
</clipPath>
</defs>
</svg>
