<svg width="100" height="100" viewBox="0 0 100 100" fill="none" xmlns="http://www.w3.org/2000/svg">
<g clip-path="url(#clip0_148_108)">
<mask id="mask0_148_108" style="mask-type:luminance" maskUnits="userSpaceOnUse" x="27" y="27" width="47" height="46">
<path d="M60.1989 72.7477C60.5714 72.891 60.9698 72.9571 61.3694 72.942C61.7689 72.9268 62.161 72.8308 62.5213 72.6597L72.1602 68.0847C72.6566 67.8489 73.0755 67.4797 73.3686 67.0195C73.6617 66.5593 73.8172 66.0268 73.8171 65.4833V34.4612C73.8172 33.9178 73.6617 33.3853 73.3686 32.9251C73.0755 32.465 72.6566 32.0958 72.1602 31.86L62.5215 27.2849C61.9769 27.0263 61.3642 26.9412 60.7684 27.0413C60.1725 27.1413 59.6229 27.4216 59.1957 27.8434L40.7433 44.4496L32.7055 38.4312C32.343 38.1597 31.8955 38.022 31.4407 38.0419C30.986 38.0619 30.5527 38.2382 30.216 38.5404L27.6381 40.8536C26.7881 41.6162 26.7872 42.9354 27.6359 43.6992L34.6064 49.9723L27.6359 56.2451C26.7872 57.0092 26.7881 58.3282 27.6381 59.091L30.216 61.404C30.5527 61.7062 30.986 61.8826 31.4407 61.9025C31.8955 61.9225 32.3429 61.7848 32.7055 61.5134L40.7433 55.4948L59.1957 72.101C59.481 72.3829 59.8226 72.6031 60.1989 72.7477V72.7477ZM62.12 39.4884L48.1188 49.9723L62.12 60.4559V39.4884V39.4884Z" fill="#0065A9"/>
</mask>
<g mask="url(#mask0_148_108)">
<path d="M72.1888 31.8673L62.5424 27.2857C61.9976 27.027 61.3848 26.9417 60.7887 27.0416C60.1926 27.1416 59.6427 27.4218 59.2152 27.8435L27.6363 56.2453C26.787 57.0094 26.7881 58.3283 27.6385 59.0911L30.218 61.4042C30.555 61.7064 30.9885 61.8828 31.4435 61.9028C31.8985 61.9228 32.3463 61.7851 32.7092 61.5136L70.7373 33.0558C72.0131 32.1013 73.8456 32.9988 73.8456 34.5784V34.4679C73.8455 33.9245 73.6901 33.3922 73.397 32.9322C73.1039 32.4721 72.6851 32.103 72.1888 31.8673Z" fill="#0065A9"/>
</g>
<mask id="mask1_148_108" style="mask-type:luminance" maskUnits="userSpaceOnUse" x="27" y="27" width="47" height="46">
<path d="M60.1989 72.7477C60.5714 72.891 60.9698 72.9571 61.3694 72.942C61.7689 72.9268 62.161 72.8308 62.5213 72.6597L72.1602 68.0847C72.6566 67.8489 73.0755 67.4797 73.3686 67.0195C73.6617 66.5593 73.8172 66.0268 73.8171 65.4833V34.4612C73.8172 33.9178 73.6617 33.3853 73.3686 32.9251C73.0755 32.465 72.6566 32.0958 72.1602 31.86L62.5215 27.2849C61.9769 27.0263 61.3642 26.9412 60.7684 27.0413C60.1725 27.1413 59.6229 27.4216 59.1957 27.8434L40.7433 44.4496L32.7055 38.4312C32.343 38.1597 31.8955 38.022 31.4407 38.0419C30.986 38.0619 30.5527 38.2382 30.216 38.5404L27.6381 40.8536C26.7881 41.6162 26.7872 42.9354 27.6359 43.6992L34.6064 49.9723L27.6359 56.2451C26.7872 57.0092 26.7881 58.3282 27.6381 59.091L30.216 61.404C30.5527 61.7062 30.986 61.8826 31.4407 61.9025C31.8955 61.9225 32.3429 61.7848 32.7055 61.5134L40.7433 55.4948L59.1957 72.101C59.481 72.3829 59.8226 72.6031 60.1989 72.7477V72.7477ZM62.12 39.4884L48.1188 49.9723L62.12 60.4559V39.4884V39.4884Z" fill="#007ACC"/>
</mask>
<g mask="url(#mask1_148_108)">
<path d="M72.1888 68.0774L62.5424 72.6589C61.9976 72.9176 61.3848 73.0028 60.7887 72.9029C60.1926 72.803 59.6427 72.5228 59.2152 72.1011L27.6363 43.6994C26.787 42.9355 26.7881 41.6163 27.6385 40.8537L30.218 38.5405C30.555 38.2383 30.9886 38.0619 31.4436 38.0419C31.8986 38.022 32.3463 38.1597 32.7092 38.4313L70.7373 66.8888C72.0131 67.8434 73.8456 66.9458 73.8456 65.3661V65.4767C73.8455 66.0201 73.69 66.5524 73.3969 67.0125C73.1039 67.4725 72.6851 67.8416 72.1888 68.0774Z" fill="#007ACC"/>
</g>
<mask id="mask2_148_108" style="mask-type:luminance" maskUnits="userSpaceOnUse" x="27" y="27" width="47" height="46">
<path d="M60.1989 72.7477C60.5714 72.891 60.9698 72.9571 61.3694 72.942C61.7689 72.9268 62.161 72.8308 62.5213 72.6597L72.1602 68.0847C72.6566 67.8489 73.0755 67.4797 73.3686 67.0195C73.6617 66.5593 73.8172 66.0268 73.8171 65.4833V34.4612C73.8172 33.9178 73.6617 33.3853 73.3686 32.9251C73.0755 32.465 72.6566 32.0958 72.1602 31.86L62.5215 27.2849C61.9769 27.0263 61.3642 26.9412 60.7684 27.0413C60.1725 27.1413 59.6229 27.4216 59.1957 27.8434L40.7433 44.4496L32.7055 38.4312C32.343 38.1597 31.8955 38.022 31.4407 38.0419C30.986 38.0619 30.5527 38.2382 30.216 38.5404L27.6381 40.8536C26.7881 41.6162 26.7872 42.9354 27.6359 43.6992L34.6064 49.9723L27.6359 56.2451C26.7872 57.0092 26.7881 58.3282 27.6381 59.091L30.216 61.404C30.5527 61.7062 30.986 61.8826 31.4407 61.9025C31.8955 61.9225 32.3429 61.7848 32.7055 61.5134L40.7433 55.4948L59.1957 72.101C59.481 72.3829 59.8226 72.6031 60.1989 72.7477V72.7477ZM62.12 39.4884L48.1188 49.9723L62.12 60.4559V39.4884V39.4884Z" fill="#1F9CF0"/>
</mask>
<g mask="url(#mask2_148_108)">
<path d="M62.5121 72.6625C61.9672 72.921 61.3542 73.0062 60.7581 72.9062C60.162 72.8061 59.6121 72.5259 59.1844 72.1041C60.2642 73.169 62.1106 72.4147 62.1106 70.9083V29.042C62.1106 27.5356 60.2642 26.7813 59.1844 27.8463C59.6121 27.4246 60.1619 27.1443 60.7581 27.0442C61.3542 26.9441 61.9671 27.0293 62.5121 27.2878L72.1568 31.863C72.6534 32.0986 73.0725 32.4677 73.3658 32.9279C73.6591 33.3881 73.8147 33.9206 73.8147 34.4642V65.4865C73.8147 66.5957 73.1703 67.607 72.1568 68.0876L62.5121 72.6625Z" fill="#1F9CF0"/>
</g>
<mask id="mask3_148_108" style="mask-type:luminance" maskUnits="userSpaceOnUse" x="27" y="27" width="47" height="46">
<path d="M60.1989 72.7477C60.5714 72.891 60.9698 72.9571 61.3694 72.942C61.7689 72.9268 62.161 72.8308 62.5213 72.6597L72.1602 68.0847C72.6566 67.8489 73.0755 67.4797 73.3686 67.0195C73.6617 66.5593 73.8172 66.0268 73.8171 65.4833V34.4612C73.8172 33.9178 73.6617 33.3853 73.3686 32.9251C73.0755 32.465 72.6566 32.0958 72.1602 31.86L62.5215 27.2849C61.9769 27.0263 61.3642 26.9412 60.7684 27.0413C60.1725 27.1413 59.6229 27.4216 59.1957 27.8434L40.7433 44.4496L32.7055 38.4312C32.343 38.1597 31.8955 38.022 31.4407 38.0419C30.986 38.0619 30.5527 38.2382 30.216 38.5404L27.6381 40.8536C26.7881 41.6162 26.7872 42.9354 27.6359 43.6992L34.6064 49.9723L27.6359 56.2451C26.7872 57.0092 26.7881 58.3282 27.6381 59.091L30.216 61.404C30.5527 61.7062 30.986 61.8826 31.4407 61.9025C31.8955 61.9225 32.3429 61.7848 32.7055 61.5134L40.7433 55.4948L59.1957 72.101C59.481 72.3829 59.8226 72.6031 60.1989 72.7477V72.7477ZM62.12 39.4884L48.1188 49.9723L62.12 60.4559V39.4884V39.4884Z" fill="url(#paint0_linear_148_108)" fill-opacity="0.25"/>
</mask>
<g mask="url(#mask3_148_108)">
<path d="M60.1989 72.7473C60.5714 72.8906 60.9698 72.9567 61.3694 72.9416C61.7689 72.9264 62.161 72.8304 62.5213 72.6593L72.16 68.0841C72.6565 67.8484 73.0754 67.4793 73.3685 67.0191C73.6617 66.5589 73.8172 66.0265 73.8171 65.483V34.4609C73.8172 33.9174 73.6617 33.3849 73.3686 32.9248C73.0755 32.4646 72.6566 32.0954 72.1602 31.8597L62.5211 27.2843C61.9765 27.0258 61.3639 26.9407 60.7681 27.0408C60.1723 27.1409 59.6228 27.4211 59.1955 27.8428L40.7433 44.4492L32.7055 38.4308C32.343 38.1593 31.8955 38.0216 31.4407 38.0415C30.986 38.0615 30.5527 38.2378 30.216 38.54L27.6381 40.8532C26.7881 41.6158 26.7872 42.935 27.6359 43.6989L34.6064 49.9719L27.6359 56.2448C26.7872 57.0088 26.7881 58.3278 27.6381 59.0906L30.216 61.4036C30.5527 61.7058 30.986 61.8822 31.4407 61.9022C31.8955 61.9222 32.3429 61.7845 32.7055 61.513L40.7433 55.4944L59.1955 72.1006C59.4809 72.3825 59.8226 72.6028 60.1989 72.7473ZM62.12 39.4879L48.1188 49.9719L62.12 60.4556V39.4879Z" fill="url(#paint1_linear_148_108)" fill-opacity="0.25"/>
</g>
</g>
<defs>
<linearGradient id="paint0_linear_148_108" x1="2367.86" y1="27.0005" x2="2367.86" y2="4621.36" gradientUnits="userSpaceOnUse">
<stop stop-color="white"/>
<stop offset="1" stop-color="white" stop-opacity="0"/>
</linearGradient>
<linearGradient id="paint1_linear_148_108" x1="2367.86" y1="27" x2="2367.86" y2="4621.37" gradientUnits="userSpaceOnUse">
<stop stop-color="white"/>
<stop offset="1" stop-color="white" stop-opacity="0"/>
</linearGradient>
<clipPath id="clip0_148_108">
<rect width="47" height="46" fill="white" transform="translate(27 27)"/>
</clipPath>
</defs>
</svg>
