<svg width="100" height="100" viewBox="0 0 100 100" fill="none" xmlns="http://www.w3.org/2000/svg">
<g clip-path="url(#clip0_146_50)">
<path d="M42.5 72.9998C46.64 72.9998 50 69.5652 50 65.3332V57.6665H42.5C38.36 57.6665 35 61.1012 35 65.3332C35 69.5652 38.36 72.9998 42.5 72.9998Z" fill="#0ACF83"/>
<path d="M35 50.0002C35 45.7682 38.36 42.3335 42.5 42.3335H50V57.6668H42.5C38.36 57.6668 35 54.2322 35 50.0002Z" fill="#A259FF"/>
<path d="M35 34.6667C35 30.4347 38.36 27 42.5 27H50V42.3333H42.5C38.36 42.3333 35 38.8987 35 34.6667Z" fill="#F24E1E"/>
<path d="M50 27H57.5C61.64 27 65 30.4347 65 34.6667C65 38.8987 61.64 42.3333 57.5 42.3333H50V27Z" fill="#FF7262"/>
<path d="M65 50.0002C65 54.2322 61.64 57.6668 57.5 57.6668C53.36 57.6668 50 54.2322 50 50.0002C50 45.7682 53.36 42.3335 57.5 42.3335C61.64 42.3335 65 45.7682 65 50.0002Z" fill="#1ABCFE"/>
</g>
<defs>
<clipPath id="clip0_146_50">
<rect width="30" height="46" fill="white" transform="translate(35 27)"/>
</clipPath>
</defs>
</svg>
