<svg width="240" height="240" viewBox="0 0 240 240" fill="none" xmlns="http://www.w3.org/2000/svg">
<circle cx="120" cy="120" r="110" fill="#374259" stroke="#F9F9F9" stroke-width="20" stroke-linecap="square"/>
<path d="M106.5 134.75L135.75 105.5M135.75 105.5V133.58M135.75 105.5H107.67" stroke="white" stroke-width="3" stroke-linecap="round" stroke-linejoin="round"/>
<path d="M120 195.967C120.516 195.967 120.987 196.093 121.413 196.344C121.839 196.6 122.18 196.941 122.436 197.367C122.687 197.793 122.813 198.264 122.813 198.779C122.813 199.299 122.687 199.77 122.436 200.192C122.18 200.618 121.839 200.957 121.413 201.208C120.987 201.464 120.516 201.592 120 201.592C119.48 201.592 119.01 201.464 118.588 201.208C118.162 200.957 117.823 200.618 117.571 200.192C117.316 199.77 117.188 199.299 117.188 198.779C117.188 198.264 117.316 197.793 117.571 197.367C117.823 196.941 118.162 196.6 118.588 196.344C119.01 196.093 119.48 195.967 120 195.967Z" fill="white"/>
<path d="M89.9007 186.799L83.9625 198.465L82.5683 197.711L87.8686 187.298L82.5169 184.401L83.1548 183.148L89.9007 186.799Z" fill="white"/>
<path d="M75.2764 177.262L66.7453 187.191L60.9122 181.862L61.8286 180.796L66.4913 185.055L69.3739 181.7L65.0132 177.717L65.9297 176.65L70.2903 180.633L73.1896 177.259L68.4513 172.931L69.3678 171.864L75.2764 177.262Z" fill="white"/>
<path d="M54.7065 172.495L53.5608 173.31L48.0992 165.151L49.2448 164.336L51.5347 167.756L61.0544 160.981L61.9362 162.298L52.4166 169.074L54.7065 172.495Z" fill="white"/>
<path d="M40.9481 149.354L42.0196 148.935C42.3451 148.808 42.7144 148.732 43.1276 148.708C43.5354 148.681 43.9538 148.714 44.383 148.807C44.8066 148.897 45.2043 149.053 45.576 149.274L45.2393 150.284C44.7895 150.171 44.3382 150.099 43.8856 150.065C43.4275 150.029 42.9782 150.097 42.5377 150.27L41.4423 150.698L40.9481 149.354Z" fill="white"/>
<path d="M38.5274 127.174C37.8937 127.33 37.4311 127.702 37.1397 128.288C36.8483 128.874 36.749 129.561 36.8417 130.348C36.9095 130.923 37.0618 131.415 37.2987 131.824C37.5351 132.228 37.8302 132.53 38.1842 132.731C38.5377 132.927 38.9217 132.999 39.336 132.947C39.6828 132.904 39.9711 132.784 40.2012 132.588C40.4265 132.388 40.6061 132.146 40.7402 131.863C40.8699 131.581 40.9707 131.289 41.0426 130.988C41.1101 130.687 41.1614 130.412 41.1965 130.163L41.3962 128.798C41.4451 128.449 41.5234 128.057 41.631 127.622C41.7381 127.184 41.9045 126.757 42.1303 126.342C42.3513 125.924 42.6564 125.564 43.0456 125.262C43.4348 124.959 43.9339 124.77 44.5428 124.694C45.2447 124.606 45.9006 124.711 46.5106 125.008C47.12 125.301 47.6331 125.778 48.0499 126.439C48.4662 127.095 48.7331 127.923 48.8507 128.922C48.9604 129.853 48.9052 130.678 48.6852 131.397C48.4647 132.111 48.1089 132.697 47.6178 133.154C47.1261 133.606 46.5281 133.902 45.8237 134.042L45.6324 132.417C46.1179 132.313 46.5043 132.097 46.7918 131.769C47.0745 131.437 47.268 131.039 47.3721 130.575C47.4715 130.108 47.4908 129.616 47.43 129.099C47.3592 128.498 47.1984 127.971 46.9476 127.517C46.6926 127.064 46.3731 126.719 45.9893 126.484C45.6012 126.249 45.1704 126.161 44.6968 126.221C44.2655 126.275 43.9288 126.439 43.6866 126.714C43.4443 126.99 43.2618 127.334 43.1391 127.749C43.0163 128.164 42.9184 128.608 42.8453 129.081L42.5771 130.738C42.4049 131.79 42.0831 132.646 41.6116 133.306C41.1402 133.967 40.4668 134.352 39.5916 134.461C38.8643 134.552 38.2068 134.435 37.6193 134.109C37.027 133.78 36.5413 133.299 36.1624 132.668C35.7787 132.033 35.538 131.301 35.4403 130.472C35.3417 129.634 35.4041 128.87 35.6275 128.181C35.8468 127.492 36.1919 126.925 36.6629 126.479C37.1334 126.03 37.6951 125.753 38.348 125.65L38.5274 127.174Z" fill="white"/>
<path d="M41.0665 94.3996L39.7568 93.8874L43.146 84.6727L44.4557 85.1849L43.0347 89.0483L53.9169 93.3039L53.3696 94.7917L42.4875 90.5361L41.0665 94.3996Z" fill="white"/>
<path d="M59.5187 81.3183L58.5942 82.6994L50.6028 71.114L51.513 69.7542L64.8523 73.3507L63.9278 74.7317L52.7736 71.5925L52.7167 71.6775L59.5187 81.3183ZM55.6939 77.8432L59.4203 72.2765L60.566 73.0919L56.8396 78.6586L55.6939 77.8432Z" fill="white"/>
<path d="M70.2033 67.3749L61.6722 57.4455L62.8426 56.3764L70.4572 65.2391L74.9501 61.1349L75.8665 62.2015L70.2033 67.3749Z" fill="white"/>
<path d="M83.0733 56.8969L77.135 45.2304L78.5292 44.4759L81.4751 50.2636L81.61 50.1906L83.836 41.6039L85.6574 40.6182L83.502 48.4982L91.5956 52.2848L89.9092 53.1975L83.1462 49.9405L82.5421 52.3599L84.4674 56.1425L83.0733 56.8969Z" fill="white"/>
<path d="M120 44.0346C119.485 44.0346 119.014 43.9089 118.588 43.6574C118.162 43.4018 117.821 43.0609 117.565 42.6347C117.314 42.2086 117.188 41.7377 117.188 41.2221C117.188 40.7022 117.314 40.2313 117.565 39.8094C117.821 39.3833 118.162 39.0445 118.588 38.7931C119.014 38.5374 119.485 38.4096 120 38.4096C120.52 38.4096 120.991 38.5374 121.413 38.7931C121.839 39.0445 122.178 39.3833 122.429 39.8094C122.685 40.2313 122.813 40.7022 122.813 41.2221C122.813 41.7377 122.685 42.2086 122.429 42.6347C122.178 43.0609 121.839 43.4018 121.413 43.6574C120.991 43.9089 120.52 44.0346 120 44.0346Z" fill="white"/>
<path d="M150.1 53.2021L156.038 41.5355L157.432 42.29L152.132 52.7034L157.484 55.5996L156.846 56.8529L150.1 53.2021Z" fill="white"/>
<path d="M164.724 62.7409L173.255 52.8115L179.088 58.1401L178.172 59.2067L173.509 54.9473L170.627 58.3023L174.987 62.2858L174.071 63.3525L169.71 59.369L166.811 62.7434L171.549 67.0718L170.633 68.1384L164.724 62.7409Z" fill="white"/>
<path d="M185.294 67.5109L186.44 66.6954L191.902 74.8543L190.756 75.6697L188.466 72.249L178.946 79.0245L178.064 77.7071L187.584 70.9316L185.294 67.5109Z" fill="white"/>
<path d="M199.053 90.6467L197.981 91.0658C197.656 91.193 197.286 91.2688 196.873 91.2932C196.465 91.32 196.047 91.2869 195.618 91.194C195.194 91.1035 194.796 90.9479 194.425 90.7273L194.761 89.7173C195.211 89.8296 195.662 89.9024 196.115 89.9359C196.573 89.9717 197.022 89.9035 197.463 89.7313L198.558 89.3029L199.053 90.6467Z" fill="white"/>
<path d="M201.473 112.827C202.107 112.671 202.57 112.299 202.861 111.713C203.152 111.127 203.252 110.44 203.159 109.653C203.091 109.078 202.939 108.586 202.702 108.177C202.466 107.773 202.17 107.471 201.816 107.27C201.463 107.074 201.079 107.002 200.665 107.054C200.318 107.097 200.03 107.217 199.799 107.413C199.574 107.613 199.395 107.855 199.261 108.138C199.131 108.42 199.03 108.712 198.958 109.013C198.891 109.314 198.839 109.588 198.804 109.838L198.605 111.203C198.556 111.552 198.477 111.944 198.37 112.379C198.263 112.817 198.096 113.244 197.87 113.659C197.649 114.077 197.344 114.437 196.955 114.739C196.566 115.042 196.067 115.231 195.458 115.307C194.756 115.395 194.1 115.29 193.49 114.993C192.881 114.7 192.368 114.223 191.951 113.562C191.535 112.906 191.268 112.078 191.15 111.079C191.04 110.148 191.095 109.323 191.315 108.604C191.536 107.89 191.892 107.304 192.383 106.847C192.875 106.395 193.473 106.099 194.177 105.959L194.368 107.584C193.883 107.688 193.496 107.904 193.209 108.232C192.926 108.564 192.733 108.962 192.629 109.426C192.529 109.893 192.51 110.385 192.571 110.902C192.641 111.502 192.802 112.03 193.053 112.484C193.308 112.937 193.628 113.282 194.011 113.517C194.399 113.752 194.83 113.84 195.304 113.78C195.735 113.726 196.072 113.562 196.314 113.287C196.556 113.011 196.739 112.667 196.862 112.252C196.984 111.837 197.082 111.393 197.155 110.92L197.424 109.263C197.596 108.211 197.918 107.355 198.389 106.695C198.86 106.034 199.534 105.649 200.409 105.54C201.136 105.449 201.794 105.566 202.381 105.892C202.974 106.221 203.459 106.702 203.838 107.333C204.222 107.968 204.463 108.7 204.56 109.529C204.659 110.367 204.597 111.131 204.373 111.82C204.154 112.509 203.809 113.076 203.338 113.522C202.867 113.971 202.306 114.248 201.653 114.351L201.473 112.827Z" fill="white"/>
<path d="M198.934 145.601L200.244 146.114L196.855 155.328L195.545 154.816L196.966 150.953L186.084 146.697L186.631 145.209L197.513 149.465L198.934 145.601Z" fill="white"/>
<path d="M180.482 158.683L181.406 157.302L189.398 168.887L188.488 170.247L175.148 166.65L176.073 165.269L187.227 168.408L187.284 168.323L180.482 158.683ZM184.307 162.158L180.58 167.725L179.435 166.909L183.161 161.342L184.307 162.158Z" fill="white"/>
<path d="M169.797 172.627L178.328 182.556L177.158 183.626L169.543 174.763L165.051 178.867L164.134 177.8L169.797 172.627Z" fill="white"/>
<path d="M156.927 183.105L162.866 194.772L161.471 195.526L158.525 189.738L158.391 189.811L156.165 198.398L154.343 199.384L156.499 191.504L148.405 187.717L150.091 186.804L156.854 190.061L157.458 187.642L155.533 183.86L156.927 183.105Z" fill="white"/>
</svg>
