<svg width="24" height="24" viewBox="0 0 24 24" fill="none" xmlns="http://www.w3.org/2000/svg">
<path d="M3.29618 20.6021L9.66018 14.2381M17.6742 11.4081L15.7692 17.1231C15.7388 17.2147 15.6867 17.2976 15.6174 17.3648C15.5482 17.432 15.4637 17.4815 15.3712 17.5091L3.69318 20.9801C3.58798 21.0113 3.47621 21.0131 3.37005 20.9853C3.2639 20.9574 3.16742 20.901 3.09111 20.8221C3.01481 20.7432 2.9616 20.6449 2.93728 20.5379C2.91296 20.4308 2.91846 20.3192 2.95318 20.2151L6.74518 8.84108C6.77236 8.75942 6.81679 8.68455 6.87546 8.62157C6.93412 8.5586 7.00565 8.50898 7.08518 8.47608L12.4722 6.25808C12.5817 6.21285 12.7022 6.20106 12.8184 6.22419C12.9346 6.24733 13.0413 6.30436 13.1252 6.38808L17.5292 10.7931C17.6082 10.872 17.6636 10.9713 17.6892 11.0799C17.7148 11.1886 17.7096 11.3022 17.6742 11.4081Z" stroke="#F1935C" stroke-width="1.5" stroke-linecap="round" stroke-linejoin="round"/>
<path d="M17.7923 11.056L20.6203 8.22699C20.9953 7.85194 21.2059 7.34332 21.2059 6.81299C21.2059 6.28266 20.9953 5.77405 20.6203 5.39899L18.5003 3.27699C18.3146 3.09119 18.0941 2.9438 17.8514 2.84324C17.6087 2.74268 17.3485 2.69092 17.0858 2.69092C16.8231 2.69092 16.563 2.74268 16.3203 2.84324C16.0776 2.9438 15.8571 3.09119 15.6713 3.27699L12.8433 6.10599M11.7813 12.116C11.642 11.9767 11.4766 11.8663 11.2946 11.7909C11.1126 11.7156 10.9175 11.6768 10.7205 11.6769C10.5235 11.6769 10.3284 11.7158 10.1464 11.7912C9.96444 11.8666 9.7991 11.9772 9.65983 12.1165C9.52056 12.2558 9.4101 12.4212 9.33476 12.6032C9.25941 12.7853 9.22066 12.9803 9.2207 13.1773C9.22075 13.3743 9.2596 13.5694 9.33503 13.7514C9.41046 13.9334 9.521 14.0987 9.66033 14.238C9.94172 14.5193 10.3233 14.6772 10.7212 14.6771C11.119 14.677 11.5006 14.5189 11.7818 14.2375C12.0631 13.9561 12.2211 13.5745 12.221 13.1766C12.2209 12.7788 12.0627 12.3973 11.7813 12.116Z" stroke="#F1935C" stroke-width="1.5" stroke-linecap="round" stroke-linejoin="round"/>
</svg>
