<svg width="31" height="24" viewBox="0 0 31 24" fill="none" xmlns="http://www.w3.org/2000/svg">
<g clip-path="url(#clip0_169_4)">
<path d="M14.3999 17.7301C14.4364 18.5818 14.2847 19.4311 13.9556 20.2176C13.6265 21.004 13.1281 21.7082 12.4959 22.2801L12.4909 22.2841C11.182 23.4447 9.4773 24.0583 7.72895 23.9981H7.73995C6.68317 24.0553 5.62676 23.879 4.64579 23.4818C3.66481 23.0847 2.78332 22.4764 2.06395 21.7001L2.05995 21.6961C0.617738 19.9847 -0.117867 17.7879 0.00294784 15.5531L0.00194784 15.5741C-0.0650748 13.2533 0.366287 10.9451 1.26695 8.80512L1.22695 8.91212C1.94606 7.23428 2.9438 5.69016 4.17795 4.34512L4.16695 4.35712C5.18653 3.25102 6.36797 2.30594 7.67095 1.55412L7.74295 1.51612C8.72843 0.9476 9.7569 0.457102 10.8189 0.0491172L10.9749 -0.00388281L14.1089 5.28612C12.8066 5.81157 11.6635 6.66694 10.7919 7.76812L10.7789 7.78512C9.91115 8.81883 9.36685 10.0851 9.21395 11.4261L9.21095 11.4581C9.89291 11.4752 10.5636 11.6362 11.179 11.9305C11.7944 12.2249 12.3406 12.6459 12.7819 13.1661L12.7879 13.1731C13.91 14.4225 14.4905 16.0661 14.4019 17.7431L14.4029 17.7281L14.3999 17.7301ZM31.3479 17.7301C31.384 18.582 31.232 19.4314 30.9028 20.218C30.5735 21.0045 30.0751 21.7089 29.4429 22.2811L29.4379 22.2851C28.1293 23.4462 26.4244 24.0598 24.6759 23.9991H24.6869C23.6301 24.0565 22.5736 23.8804 21.5926 23.4832C20.6116 23.086 19.7302 22.4776 19.0109 21.7011L19.0069 21.6961C17.5641 19.9847 16.8285 17.7873 16.9499 15.5521L16.9489 15.5731C16.8819 13.2523 17.3133 10.9441 18.2139 8.80412L18.1739 8.91112C18.8927 7.23357 19.8898 5.6895 21.1229 4.34412L21.1119 4.35612C22.1319 3.25 23.3137 2.30492 24.6169 1.55312L24.6889 1.51512C25.6742 0.9462 26.7027 0.455686 27.7649 0.0481172L27.9209 -0.00488281L31.0539 5.28512C29.7514 5.81121 28.6083 6.66728 27.7369 7.76912L27.7239 7.78612C26.8561 8.81982 26.3119 10.0861 26.1589 11.4271L26.1559 11.4591C26.8376 11.4761 27.508 11.6371 28.1231 11.9314C28.7382 12.2258 29.2841 12.6469 29.7249 13.1671L29.7309 13.1741C30.8543 14.4226 31.4359 16.066 31.3479 17.7431L31.3489 17.7281L31.3479 17.7301Z" fill="#F1935C"/>
</g>
<defs>
<clipPath id="clip0_169_4">
<rect width="31" height="24" fill="white"/>
</clipPath>
</defs>
</svg>
