<svg width="90" height="90" viewBox="0 0 90 90" fill="none" xmlns="http://www.w3.org/2000/svg">
<g clip-path="url(#clip0_90_64)">
<path d="M71.954 51.1483V51.1483C75.8454 53.1769 76.0316 58.6768 72.2863 60.9639L35.86 83.2083C24.5318 90.126 10 81.973 10 68.6996V28.7457C10 24.241 14.8561 21.383 18.8506 23.4654V23.4654" stroke="url(#paint0_angular_90_64)" stroke-width="3"/>
<path d="M74.309 30.7308L33.818 9.62279C27.1605 6.15221 19.1954 10.9824 19.1954 18.4902V64.3248C19.1954 72.1326 27.7436 76.9285 34.4072 72.8592L74.8982 48.1327C81.5381 44.0779 81.208 34.3272 74.309 30.7308Z" stroke="url(#paint1_angular_90_64)" stroke-width="6"/>
<path d="M62.2353 34.3267L68.4039 37.3895C69.86 38.1125 69.8909 40.1786 68.457 40.9448L55.1765 48.041" stroke="url(#paint2_linear_90_64)" stroke-width="3" stroke-linecap="round"/>
</g>
<defs>
<radialGradient id="paint0_angular_90_64" cx="0" cy="0" r="1" gradientUnits="userSpaceOnUse" gradientTransform="translate(45.4023 58.9258) rotate(90) scale(40.0743 35.4023)">
<stop offset="0.353776" stop-color="#2A528A"/>
<stop offset="0.735353" stop-color="#D35D6E"/>
</radialGradient>
<radialGradient id="paint1_angular_90_64" cx="0" cy="0" r="1" gradientUnits="userSpaceOnUse" gradientTransform="translate(54.5977 42.0743) rotate(90) scale(40.0743 35.4023)">
<stop offset="0.0605491" stop-color="#309498"/>
<stop offset="0.300734" stop-color="#F1935C"/>
<stop offset="0.777153" stop-color="#D35D6E"/>
</radialGradient>
<linearGradient id="paint2_linear_90_64" x1="63.0578" y1="33.1787" x2="63.0578" y2="49.0206" gradientUnits="userSpaceOnUse">
<stop stop-color="#D35D6E"/>
<stop offset="1" stop-color="#2A528A"/>
</linearGradient>
<clipPath id="clip0_90_64">
<rect width="90" height="90" fill="white"/>
</clipPath>
</defs>
</svg>
